<?xml version="1.0" encoding="utf-8"?>
<svg xmlns="http://www.w3.org/2000/svg" height="256" width="256" viewBox="0 0 256 256">
  <g>
    <path id="path1" transform="rotate(0,128,128) translate(0.000106811434307019,0) scale(7.99999332428536,7.99999332428536)  " fill="#FFFFFF" d="M7.9999709,18.000025L7.9999709,30 23.999971,30 23.999971,18.000025z M2.5000002,2.0000002C2.2249756,2,2,2.2250366,1.9999998,2.5000002L1.9999998,29.5C2,29.775024,2.2249756,30,2.5000002,30L5.9999709,30 5.9999709,16.000025 25.999971,16.000025 25.999971,30 29.5,30C29.775024,30,30,29.775024,30,29.5L30,4.56604 26,2.1660156 26,12 10,12 10,2.0000002z M18.999971,1.0000247L20.999971,1.0000247 20.999971,8.0000248 18.999971,8.0000248z M2.5000002,0L12,0 12,10 24,10 24,0 26.276978,0 32,3.434021 32,29.5C32,30.879028,30.879028,32,29.5,32L25.999971,32 5.9999709,32.000027 2.5000002,32C1.1209717,32,-1.6711965E-11,30.879028,0,29.5L0,2.5000002C-1.6711965E-11,1.1210327,1.1209717,0,2.5000002,0z" />
  </g>
</svg>

